<?xml version="1.0" standalone="no"?>
<!DOCTYPE svg PUBLIC "-//W3C//DTD SVG 20010904//EN"
 "http://www.w3.org/TR/2001/REC-SVG-20010904/DTD/svg10.dtd">
<svg version="1.0" xmlns="http://www.w3.org/2000/svg"
 width="512.000000pt" height="512.000000pt" viewBox="0 0 512.000000 512.000000"
 preserveAspectRatio="xMidYMid meet">
<metadata>
Created by potrace 1.14, written by Peter Selinger 2001-2017
</metadata>
<g transform="translate(0.000000,512.000000) scale(0.100000,-0.100000)"
fill="#000000" stroke="none">
<path d="M2345 5109 c-602 -61 -1169 -331 -1593 -757 -395 -397 -637 -879
-727 -1449 -26 -158 -30 -471 -11 -643 64 -546 278 -1025 639 -1428 41 -46 77
-84 81 -83 3 0 29 -25 58 -55 183 -194 554 -426 863 -539 128 -48 366 -107
520 -131 162 -25 550 -25 708 -1 487 75 902 256 1272 554 133 107 341 322 441
456 357 476 541 1056 521 1637 -14 376 -94 701 -257 1035 -368 755 -1079 1270
-1920 1390 -136 20 -467 28 -595 14z m-774 -2285 c212 -48 358 -276 309 -485
-58 -250 -314 -389 -551 -300 -178 67 -290 259 -260 443 29 173 153 307 321
344 75 17 100 17 181 -2z m1064 -10 c119 -40 227 -148 262 -263 24 -77 22
-200 -4 -267 -60 -155 -193 -255 -358 -271 -258 -24 -484 224 -437 478 47 252
299 404 537 323z m970 15 c217 -40 369 -252 334 -467 -18 -119 -92 -230 -190
-289 -216 -129 -483 -46 -592 185 -29 61 -32 75 -32 167 0 88 3 107 28 159 57
122 154 206 275 237 80 21 101 22 177 8z"/>
</g>
</svg>
